PathFileType	4	(X/Y/Z)	C:\Users\WrightLab\Desktop\Jo\P2_Trial31.trc
DataRate	CameraRate	NumFrames	NumMarkers	Units	OrigDataRate	OrigDataStartFrame	OrigNumFrames
100.00	100.00	       16	19	mm	100.00	204	       812
Frame#	Time	Headset_Front			Headset_Back			Headset_Left			Headset_Right			Left_Shoulder			Right_Shoulder			Sternum			C7			Left Elbow			Right Elbow			Left Wrist			Right Wrist			Left ASIS			Right ASIS			S2			Left Knee			Right Knee			Left Ankle			Right Ankle			
		X1	Y1	Z1	X2	Y2	Z2	X3	Y3	Z3	X4	Y4	Z4	X5	Y5	Z5	X6	Y6	Z6	X7	Y7	Z7	X8	Y8	Z8	X9	Y9	Z9	X10	Y10	Z10	X11	Y11	Z11	X12	Y12	Z12	X13	Y13	Z13	X14	Y14	Z14	X15	Y15	Z15	X16	Y16	Z16	X17	Y17	Z17	X18	Y18	Z18	X19	Y19	Z19	

204	2.030				-485.81470	1396.50757	-1195.36987	-663.45087	1375.52600	-1135.80176	-631.95325	1492.91260	-944.02893	-353.11371	1393.93481	-1028.30774	-732.89325	976.89716	-1074.38647	-521.23212	1259.67041	-1039.37085				-243.57207	1048.12085	-1002.52356				-422.44522	909.84454	-1298.41418	-752.30371	804.44849	-1256.65283	-453.63507	971.33173	-1025.31323	-590.31195	955.09729	-1047.32153	-230.25076	807.77698	-977.58063	-300.23682	407.14557	-1144.41492	-646.27789	75.19399	-1080.00854	-170.01686	148.52939	-1328.77332	-670.24969	506.23431	-1141.77478	
205	2.040				-491.58203	1398.36194	-1188.19409	-668.76489	1376.48755	-1127.04883	-636.96906	1492.83704	-935.20203	-357.61053	1395.34656	-1022.29492	-725.28680	1061.02332	-1253.60010	-526.49475	1260.33826	-1030.89636				-248.60840	1050.13281	-993.91162				-427.65671	911.90070	-1292.91235	-759.07721	805.68445	-1247.73645	-457.51831	971.99689	-1019.57904	-583.07367	954.31152	-1060.80518	-243.34093	808.17773	-972.13214	-309.55273	409.60202	-1127.83716	-646.48151	74.78912	-1080.84729	-180.60265	155.49893	-1316.43311	-671.22760	510.00571	-1126.01868	
206	2.050	-544.45392	1423.95386	-831.00336	-497.14059	1400.16431	-1180.64783	-673.86615	1377.90503	-1119.24438	-641.65924	1492.97412	-927.13855	-362.26105	1397.21570	-1017.00452				-530.69080	1261.62366	-1025.31641				-255.22961	1050.90601	-992.07745				-432.50354	914.22650	-1287.49561	-767.41016	806.74194	-1235.55359	-460.86880	973.10657	-1013.17438	-586.83301	955.35260	-1054.40063	-249.98102	808.68756	-970.33344	-318.44708	413.92044	-1112.02295	-647.63263	75.34436	-1077.43506	-191.07135	162.30438	-1301.81335	-672.51575	510.22467	-1122.70508	
207	2.060	-547.83264	1423.50928	-823.09497	-502.57681	1402.21021	-1173.89197				-646.37256	1492.64294	-918.52283	-366.33710	1399.07996	-1011.72650	-739.77704	1063.93298	-1234.80688	-534.74188	1262.63623	-1017.03717				-260.18228	1053.64673	-983.57611	-673.82214	510.55075	-1119.79285	-437.03058	916.85071	-1282.35754	-774.14905	808.92224	-1226.95679	-465.46063	974.35431	-1007.66150	-590.52423	956.02509	-1048.25696	-257.05188	812.07703	-964.95239	-329.01587	416.46393	-1094.70520	-647.73877	74.18485	-1077.37805	-201.85674	169.12558	-1289.06543				
208	2.070	-553.38031	1423.13684	-815.58209	-507.82251	1404.12061	-1166.92700				-650.70325	1492.75110	-911.11548	-370.50775	1400.17639	-1003.44733	-683.40363	1381.07349	-1102.34192	-538.48132	1263.58948	-1009.54449				-265.73285	1055.53845	-977.59686	-764.32587	983.13348	-1039.38843	-441.34534	918.83704	-1276.44580	-782.22589	809.78619	-1213.35437	-469.57416	976.24365	-1000.24628	-594.86957	957.26013	-1041.71497	-262.94034	814.84265	-953.68634	-338.55334	418.47684	-1078.87744	-286.65771	720.49310	-917.66840	-212.48296	174.54599	-1275.04663	-648.60620	74.05933	-1074.82043	
209	2.080	-556.22968	1422.87463	-807.75348	-512.92261	1406.23474	-1159.80945				-655.60706	1492.10425	-902.74298	-374.67227	1401.79468	-998.22119	-687.87109	1382.83630	-1094.06335	-542.45251	1265.16406	-1002.85773				-270.15262	1057.69324	-970.66901	-752.92334	1067.56787	-1216.05200	-445.26535	921.61810	-1271.55432	-789.30078	812.36407	-1203.69238	-473.60785	978.45770	-994.66998	-599.15527	958.39056	-1035.66614	-270.51843	819.45868	-936.17340	-347.44061	421.27637	-1061.92615	-648.85620	73.31026	-1074.30859	-223.31544	179.64842	-1258.72998	-677.02570	509.50027	-1123.43958	
210	2.090				-517.97485	1407.91687	-1152.36096				-659.81995	1493.05481	-895.58374	-378.60678	1403.28076	-991.77643	-692.43103	1384.42297	-1085.36121	-547.02106	1266.61011	-994.62262				-275.83646	1059.46753	-965.75623	-759.09796	1069.07983	-1205.69287	-448.73141	923.64600	-1265.01660	-796.30945	813.56256	-1190.94116	-478.75842	980.11566	-990.92035	-603.45215	960.28680	-1029.42334	-276.84842	820.80090	-934.54126	-355.50870	424.15735	-1045.85791	-676.51312	512.48584	-1115.82349	-235.60933	183.28957	-1241.13025	-649.04370	72.92228	-1075.07397	
211	2.100				-522.91473	1409.70239	-1145.85132				-663.01593	1493.11011	-887.68726	-381.88873	1405.22510	-985.22241	-696.65228	1386.60974	-1078.06775	-550.30554	1269.10168	-988.50543				-280.31485	1061.78259	-960.39819	-765.10828	1069.91125	-1193.81494	-452.06952	925.70990	-1259.28491	-803.79486	816.21375	-1179.23462	-483.02713	983.58447	-984.01410	-607.04083	962.09857	-1022.90002	-281.78485	823.81958	-928.05591	-356.64755	431.16226	-1020.43414	-649.31732	72.43867	-1076.21814	-247.58359	186.00032	-1225.70056	-677.42175	509.71530	-1121.55298	
212	2.110	-568.06989	1421.16455	-785.72913	-527.70026	1411.59412	-1139.01343				-667.23035	1493.11047	-879.53705	-386.09003	1407.23315	-981.62756	-700.87195	1388.42175	-1069.91577	-553.21332	1270.83020	-981.24127				-284.33365	1064.26257	-954.99133	-770.60632	1071.39978	-1183.18896	-455.27533	927.41119	-1252.17188	-810.19427	818.62000	-1168.19348	-485.76175	986.34186	-976.27997	-611.11169	963.45709	-1015.15167	-287.02316	827.83142	-920.69238	-365.96851	434.20920	-1003.60724	-678.18457	510.64932	-1119.07043	-260.10486	188.53642	-1208.90161	-649.71594	71.81891	-1077.91321	
213	2.120	-571.66229	1421.58997	-778.29480	-532.39606	1413.32520	-1132.26843				-671.18359	1493.36243	-871.94720	-390.16266	1409.04285	-975.12177	-704.95496	1390.37769	-1062.30798	-556.81079	1272.77917	-974.65784				-288.72720	1066.61377	-948.89563	-776.05353	1073.80347	-1174.74695	-458.74237	929.47144	-1246.73474	-818.01727	820.65656	-1153.92590	-490.66757	988.40326	-971.00024	-615.44507	966.03333	-1010.33655				-376.21982	435.44598	-987.87964	-678.97314	509.58774	-1122.35071	-272.20642	190.35358	-1190.71155	-650.47046	72.22970	-1078.43164	
214	2.130	-574.27435	1420.65613	-771.37634	-536.93475	1415.16980	-1126.13647				-674.81543	1493.28430	-864.33252	-393.36581	1411.37732	-968.76672	-708.96777	1392.36743	-1054.62964	-560.61603	1274.53625	-969.23163				-293.21146	1068.58704	-942.43475	-781.03680	1075.61621	-1165.11157	-462.22653	930.98749	-1239.74927	-824.16455	823.67181	-1143.34973	-494.86163	989.69812	-966.21399	-619.36298	968.51666	-1003.93658	-296.30496	833.89020	-897.73688	-384.83813	439.17184	-969.59705	-651.34180	71.89639	-1078.55481	-284.25266	190.61491	-1172.05054	-680.74225	512.80908	-1114.85535	
215	2.140										-678.30640	1492.86987	-856.66779	-397.16312	1413.09106	-963.65137	-712.85229	1394.00818	-1046.44397	-563.86469	1275.98364	-961.38635				-297.17120	1070.71240	-936.76593	-786.21643	1077.00696	-1154.50586	-465.87695	932.27380	-1233.44397	-831.63165	824.91968	-1127.50171	-498.08295	992.47168	-958.25769	-622.66724	969.58228	-997.36926				-391.31741	443.54272	-953.45160	-682.55945	513.16486	-1115.12000	-297.00848	191.32164	-1154.91443	-652.18701	74.27064	-1078.00476	
216	2.150										-681.48322	1491.59973	-848.43976	-400.79803	1414.63867	-957.95306	-716.65472	1395.63293	-1038.89453	-567.45758	1278.00378	-954.50006	-545.96320	1417.57825	-1111.92383	-299.63669	1073.48315	-929.65289	-791.77832	1077.55859	-1142.61011	-413.25775	779.92151	-838.67657	-837.29150	828.12720	-1116.80981	-500.87851	994.22314	-951.95477	-626.32825	971.09253	-988.23096	-510.49374	859.87384	-885.79462	-398.55685	446.20752	-936.69446	-684.40192	509.02521	-1127.79590	-308.85889	190.91603	-1136.20313	-653.59308	75.92457	-1074.96118	
217	2.160	-584.77795	1417.93909	-750.96027							-685.24622	1491.90942	-841.42493	-403.85464	1415.72900	-951.94391	-720.35150	1397.02478	-1030.70496	-570.10297	1278.96106	-947.92798	-550.33838	1418.68152	-1105.35693	-301.73810	1074.94287	-923.03967	-797.00366	1078.14575	-1131.29236	-472.67703	934.42877	-1219.98523	-844.69611	828.98053	-1100.59595	-504.72333	994.15082	-947.59015	-630.69073	972.48688	-983.37500				-407.47940	449.63037	-921.06421	-655.11127	77.39137	-1072.39673	-320.96774	190.31190	-1116.51050	-683.79456	514.23688	-1115.64453	
218	2.170	-586.20325	1415.06213	-743.12817							-687.85840	1491.19922	-833.54932	-407.80615	1417.57703	-947.27142	-723.94232	1398.26672	-1022.54419	-573.24609	1279.91223	-941.28638	-554.54492	1419.52747	-1098.38049	-305.98032	1076.08557	-918.96039	-802.49951	1079.25317	-1120.73193	-307.67154	843.46991	-877.75031	-850.04797	831.28973	-1088.63367	-508.50467	997.06152	-940.97400	-633.86902	973.52692	-976.61218				-415.37717	452.36993	-905.89368	-684.04669	514.45813	-1115.16882	-332.35278	187.65005	-1098.00024	-656.32373	77.82208	-1076.10461	
219	2.180	-590.01270	1414.37183	-736.39679							-691.01843	1490.29260	-826.23236	-410.75354	1418.19861	-940.00916	-727.38361	1399.32703	-1014.87439	-577.13489	1281.60986	-935.10687	-558.76385	1420.39917	-1091.54822	-308.58850	1077.80798	-913.39514	-807.96399	1080.54651	-1110.56128	-306.86951	846.03125	-871.46259	-857.29272	833.06061	-1075.76001	-512.38251	996.53625	-932.35522	-636.52588	974.66626	-969.21600	-479.91144	936.28461	-1206.40991	-421.72305	455.40570	-890.90503	-685.48810	514.64154	-1113.38354	-345.00308	185.51746	-1077.49402	-658.54327	77.48736	-1077.41248	
